<?xml version="1.0" encoding="UTF-8"?>

<svg width="210mm" height="297mm" version="1.1" viewBox="0 0 210 297" xmlns="http://www.w3.org/2000/svg">
 <path transform="matrix(.26458 0 0 .26458 59.254 52.304)" d="m225.33 272.34-131.8-76.226-137.51 65.362 31.766-148.91-104.66-110.59 151.43-15.804 72.832-133.71 61.826 139.14 149.67 27.95-113.22 101.8z" fill="#ff0" fill-rule="evenodd"/>
 <path transform="scale(.26458)" d="m181.1 604.11c4.3667 5.4063-5.1333 8.5535-8.9857 7.2577-10.44-3.5115-10.702-17.39-5.5297-25.229 9.2515-14.022 29.361-13.641 41.472-3.8017 17.773 14.44 16.687 41.503 2.0736 57.716-19.478 21.61-53.705 19.78-73.959 0.34563-25.488-24.456-22.897-65.936 1.3824-90.202 29.406-29.39 78.184-26.029 106.45 3.1104 33.305 34.339 29.169 90.443-4.8384 122.69-39.263 37.23-102.71 32.315-138.93-6.5664-41.16-44.18-35.466-114.98 8.2944-155.18 49.092-45.096 127.25-38.619 171.42 10.022 49.034 54.001 41.775 139.53-11.75 187.66" fill="none" stroke="#000"/>
</svg>
